<svg xmlns="http://www.w3.org/2000/svg" xmlns:xlink="http://www.w3.org/1999/xlink" style="display: none;">

/* Facebook Icon */
<symbol id="Facebook" viewBox="0 0 666.667 666.667"><defs><clipPath id="facebook_icon__a" clipPathUnits="userSpaceOnUse"><path d="M0 700h700V0H0Z"/></clipPath></defs><g clip-path="url(#facebook_icon__a)" transform="matrix(1.33333 0 0 -1.33333 -133.333 800)"><path d="M0 0c0 138.071-111.929 250-250 250S-500 138.071-500 0c0-117.245 80.715-215.622 189.606-242.638v166.242h-51.552V0h51.552v32.919c0 85.092 38.508 124.532 122.048 124.532 15.838 0 43.167-3.105 54.347-6.211V81.986c-5.901.621-16.149.932-28.882.932-40.993 0-56.832-15.528-56.832-55.9V0h81.659l-14.028-76.396h-67.631v-171.773C-95.927-233.218 0-127.818 0 0" style="fill:#0866ff;fill-opacity:1;fill-rule:nonzero;stroke:none" transform="translate(600 350)"/><path d="m0 0 14.029 76.396H-67.63v27.019c0 40.372 15.838 55.899 56.831 55.899 12.733 0 22.981-.31 28.882-.931v69.253c-11.18 3.106-38.509 6.212-54.347 6.212-83.539 0-122.048-39.441-122.048-124.533V76.396h-51.552V0h51.552v-166.242a250.559 250.559 0 0 1 60.394-7.362c10.254 0 20.358.632 30.288 1.831V0Z" style="fill:#fff;fill-opacity:1;fill-rule:nonzero;stroke:none" transform="translate(447.918 273.604)"/></g></symbol>

/* Instagram Icon */
<symbol id="Instagram" xmlns:xlink="http://www.w3.org/1999/xlink" viewBox="0 0 264.583 264.583"><defs><radialGradient xlink:href="#instagram_icon__a" id="instagram_icon__f" cx="158.429" cy="578.088" r="52.352" fx="158.429" fy="578.088" gradientTransform="matrix(0 -4.03418 4.28018 0 -2332.227 942.236)" gradientUnits="userSpaceOnUse"/><radialGradient xlink:href="#instagram_icon__b" id="instagram_icon__g" cx="172.615" cy="600.692" r="65" fx="172.615" fy="600.692" gradientTransform="matrix(.67441 -1.16203 1.51283 .87801 -814.366 -47.835)" gradientUnits="userSpaceOnUse"/><radialGradient xlink:href="#instagram_icon__c" id="instagram_icon__h" cx="144.012" cy="51.337" r="67.081" fx="144.012" fy="51.337" gradientTransform="matrix(-2.3989 .67549 -.23008 -.81732 464.996 -26.404)" gradientUnits="userSpaceOnUse"/><radialGradient xlink:href="#instagram_icon__d" id="instagram_icon__e" cx="199.788" cy="628.438" r="52.352" fx="199.788" fy="628.438" gradientTransform="matrix(-3.10797 .87652 -.6315 -2.23914 1345.65 1374.198)" gradientUnits="userSpaceOnUse"/><linearGradient id="instagram_icon__d"><stop offset="0" stop-color="#ff005f"/><stop offset="1" stop-color="#fc01d8"/></linearGradient><linearGradient id="instagram_icon__c"><stop offset="0" stop-color="#780cff"/><stop offset="1" stop-color="#820bff" stop-opacity="0"/></linearGradient><linearGradient id="instagram_icon__b"><stop offset="0" stop-color="#fc0"/><stop offset="1" stop-color="#fc0" stop-opacity="0"/></linearGradient><linearGradient id="instagram_icon__a"><stop offset="0" stop-color="#fc0"/><stop offset=".124" stop-color="#fc0"/><stop offset=".567" stop-color="#fe4a05"/><stop offset=".694" stop-color="#ff0f3f"/><stop offset="1" stop-color="#fe0657" stop-opacity="0"/></linearGradient></defs><path fill="url(#instagram_icon__e)" d="M204.15 18.143c-55.23 0-71.383.057-74.523.317-11.334.943-18.387 2.728-26.07 6.554-5.922 2.942-10.592 6.351-15.201 11.13-8.394 8.716-13.481 19.439-15.323 32.184-.895 6.188-1.156 7.45-1.209 39.056-.02 10.536 0 24.4 0 42.999 0 55.2.062 71.341.326 74.476.916 11.032 2.645 17.973 6.308 25.565 7 14.533 20.37 25.443 36.12 29.514 5.453 1.404 11.476 2.178 19.208 2.544 3.277.142 36.669.244 70.081.244 33.413 0 66.826-.04 70.02-.203 8.954-.422 14.153-1.12 19.901-2.606 15.852-4.09 28.977-14.838 36.12-29.575 3.591-7.409 5.412-14.614 6.236-25.07.18-2.28.255-38.626.255-74.924 0-36.304-.082-72.583-.26-74.863-.835-10.625-2.656-17.77-6.364-25.32-3.042-6.182-6.42-10.799-11.324-15.519-8.752-8.361-19.455-13.45-32.21-15.29-6.18-.894-7.41-1.158-39.033-1.213z" transform="translate(-71.816 -18.143)"/><path fill="url(#instagram_icon__f)" d="M204.15 18.143c-55.23 0-71.383.057-74.523.317-11.334.943-18.387 2.728-26.07 6.554-5.922 2.942-10.592 6.351-15.201 11.13-8.394 8.716-13.481 19.439-15.323 32.184-.895 6.188-1.156 7.45-1.209 39.056-.02 10.536 0 24.4 0 42.999 0 55.2.062 71.341.326 74.476.916 11.032 2.645 17.973 6.308 25.565 7 14.533 20.37 25.443 36.12 29.514 5.453 1.404 11.476 2.178 19.208 2.544 3.277.142 36.669.244 70.081.244 33.413 0 66.826-.04 70.02-.203 8.954-.422 14.153-1.12 19.901-2.606 15.852-4.09 28.977-14.838 36.12-29.575 3.591-7.409 5.412-14.614 6.236-25.07.18-2.28.255-38.626.255-74.924 0-36.304-.082-72.583-.26-74.863-.835-10.625-2.656-17.77-6.364-25.32-3.042-6.182-6.42-10.799-11.324-15.519-8.752-8.361-19.455-13.45-32.21-15.29-6.18-.894-7.41-1.158-39.033-1.213z" transform="translate(-71.816 -18.143)"/><path fill="url(#instagram_icon__g)" d="M204.15 18.143c-55.23 0-71.383.057-74.523.317-11.334.943-18.387 2.728-26.07 6.554-5.922 2.942-10.592 6.351-15.201 11.13-8.394 8.716-13.481 19.439-15.323 32.184-.895 6.188-1.156 7.45-1.209 39.056-.02 10.536 0 24.4 0 42.999 0 55.2.062 71.341.326 74.476.916 11.032 2.645 17.973 6.308 25.565 7 14.533 20.37 25.443 36.12 29.514 5.453 1.404 11.476 2.178 19.208 2.544 3.277.142 36.669.244 70.081.244 33.413 0 66.826-.04 70.02-.203 8.954-.422 14.153-1.12 19.901-2.606 15.852-4.09 28.977-14.838 36.12-29.575 3.591-7.409 5.412-14.614 6.236-25.07.18-2.28.255-38.626.255-74.924 0-36.304-.082-72.583-.26-74.863-.835-10.625-2.656-17.77-6.364-25.32-3.042-6.182-6.42-10.799-11.324-15.519-8.752-8.361-19.455-13.45-32.21-15.29-6.18-.894-7.41-1.158-39.033-1.213z" transform="translate(-71.816 -18.143)"/><path fill="url(#instagram_icon__h)" d="M204.15 18.143c-55.23 0-71.383.057-74.523.317-11.334.943-18.387 2.728-26.07 6.554-5.922 2.942-10.592 6.351-15.201 11.13-8.394 8.716-13.481 19.439-15.323 32.184-.895 6.188-1.156 7.45-1.209 39.056-.02 10.536 0 24.4 0 42.999 0 55.2.062 71.341.326 74.476.916 11.032 2.645 17.973 6.308 25.565 7 14.533 20.37 25.443 36.12 29.514 5.453 1.404 11.476 2.178 19.208 2.544 3.277.142 36.669.244 70.081.244 33.413 0 66.826-.04 70.02-.203 8.954-.422 14.153-1.12 19.901-2.606 15.852-4.09 28.977-14.838 36.12-29.575 3.591-7.409 5.412-14.614 6.236-25.07.18-2.28.255-38.626.255-74.924 0-36.304-.082-72.583-.26-74.863-.835-10.625-2.656-17.77-6.364-25.32-3.042-6.182-6.42-10.799-11.324-15.519-8.752-8.361-19.455-13.45-32.21-15.29-6.18-.894-7.41-1.158-39.033-1.213z" transform="translate(-71.816 -18.143)"/><path fill="#fff" d="M132.345 33.973c-26.716 0-30.07.117-40.563.594-10.472.48-17.62 2.136-23.876 4.567-6.47 2.51-11.958 5.87-17.426 11.335-5.472 5.464-8.834 10.948-11.354 17.412-2.44 6.252-4.1 13.397-4.57 23.858-.47 10.486-.593 13.838-.593 40.535 0 26.697.119 30.037.594 40.522.482 10.465 2.14 17.609 4.57 23.859 2.515 6.465 5.876 11.95 11.346 17.414 5.466 5.468 10.955 8.834 17.42 11.345 6.26 2.431 13.41 4.088 23.881 4.567 10.493.477 13.844.594 40.559.594 26.719 0 30.061-.117 40.555-.594 10.472-.48 17.63-2.136 23.888-4.567 6.468-2.51 11.948-5.877 17.414-11.345 5.472-5.464 8.834-10.949 11.354-17.412 2.419-6.252 4.079-13.398 4.57-23.858.472-10.486.595-13.828.595-40.525s-.123-30.047-.594-40.533c-.492-10.465-2.152-17.608-4.57-23.858-2.521-6.466-5.883-11.95-11.355-17.414-5.472-5.468-10.944-8.827-17.42-11.335-6.271-2.431-13.424-4.088-23.897-4.567-10.493-.477-13.834-.594-40.558-.594zm-8.825 17.715c2.62-.004 5.542 0 8.825 0 26.266 0 29.38.094 39.752.565 9.591.438 14.797 2.04 18.264 3.385 4.591 1.782 7.864 3.912 11.305 7.352 3.443 3.44 5.575 6.717 7.362 11.305 1.346 3.46 2.951 8.663 3.388 18.247.47 10.363.573 13.475.573 39.71 0 26.233-.102 29.346-.573 39.709-.44 9.584-2.042 14.786-3.388 18.247-1.783 4.587-3.919 7.854-7.362 11.292-3.443 3.441-6.712 5.57-11.305 7.352-3.463 1.352-8.673 2.95-18.264 3.388-10.37.47-13.486.573-39.752.573-26.268 0-29.38-.102-39.751-.573-9.592-.443-14.797-2.044-18.267-3.39-4.59-1.781-7.87-3.911-11.313-7.352-3.443-3.44-5.574-6.709-7.362-11.298-1.346-3.461-2.95-8.663-3.387-18.247-.472-10.363-.566-13.476-.566-39.726s.094-29.347.566-39.71c.438-9.584 2.04-14.786 3.387-18.25 1.783-4.588 3.919-7.865 7.362-11.305 3.443-3.441 6.722-5.57 11.313-7.357 3.468-1.351 8.675-2.949 18.267-3.389 9.075-.41 12.592-.532 30.926-.553zm61.337 16.322c-6.518 0-11.805 5.277-11.805 11.792 0 6.512 5.287 11.796 11.805 11.796 6.517 0 11.804-5.284 11.804-11.796 0-6.513-5.287-11.796-11.805-11.796zm-52.512 13.782c-27.9 0-50.519 22.603-50.519 50.482 0 27.879 22.62 50.471 50.52 50.471s50.51-22.592 50.51-50.471c0-27.879-22.613-50.482-50.513-50.482zm0 17.715c18.11 0 32.792 14.67 32.792 32.767 0 18.096-14.683 32.767-32.792 32.767-18.11 0-32.791-14.671-32.791-32.767 0-18.098 14.68-32.767 32.791-32.767z"/></symbol>

/* Chrome Icon */
<symbol id="Chrome" preserveAspectRatio="xMidYMid" viewBox="0 0 190.5 190.5"><path fill="#fff" d="M95.252 142.873c26.304 0 47.627-21.324 47.627-47.628s-21.323-47.628-47.627-47.628-47.627 21.324-47.627 47.628 21.323 47.628 47.627 47.628z"/><path fill="#229342" d="m54.005 119.07-41.24-71.43a95.227 95.227 0 0 0-.003 95.25 95.234 95.234 0 0 0 82.496 47.61l41.24-71.43v-.011a47.613 47.613 0 0 1-17.428 17.443 47.62 47.62 0 0 1-47.632.007 47.62 47.62 0 0 1-17.433-17.437z"/><path fill="#fbc116" d="m136.495 119.067-41.239 71.43a95.229 95.229 0 0 0 82.489-47.622A95.24 95.24 0 0 0 190.5 95.248a95.237 95.237 0 0 0-12.772-47.623H95.249l-.01.007a47.62 47.62 0 0 1 23.819 6.372 47.618 47.618 0 0 1 17.439 17.431 47.62 47.62 0 0 1-.001 47.633z"/><path fill="#1a73e8" d="M95.252 132.961c20.824 0 37.705-16.881 37.705-37.706S116.076 57.55 95.252 57.55 57.547 74.431 57.547 95.255s16.881 37.706 37.705 37.706z"/><path fill="#e33b2e" d="M95.252 47.628h82.479A95.237 95.237 0 0 0 142.87 12.76 95.23 95.23 0 0 0 95.245 0a95.222 95.222 0 0 0-47.623 12.767 95.23 95.23 0 0 0-34.856 34.872l41.24 71.43.011.006a47.62 47.62 0 0 1-.015-47.633 47.61 47.61 0 0 1 41.252-23.815z"/></symbol>

/* Youtube Icon */
<symbol id="Youtube" preserveAspectRatio="xMidYMid" viewBox="0 0 256 180"><path fill="red" d="M250.346 28.075A32.18 32.18 0 0 0 227.69 5.418C207.824 0 127.87 0 127.87 0S47.912.164 28.046 5.582A32.18 32.18 0 0 0 5.39 28.24c-6.009 35.298-8.34 89.084.165 122.97a32.18 32.18 0 0 0 22.656 22.657c19.866 5.418 99.822 5.418 99.822 5.418s79.955 0 99.82-5.418a32.18 32.18 0 0 0 22.657-22.657c6.338-35.348 8.291-89.1-.164-123.134Z"/><path fill="#FFF" d="m102.421 128.06 66.328-38.418-66.328-38.418z"/></symbol>

/* Whatsapp Icon */
<symbol id="Whatsapp" fill="none" viewBox="0 0 360 362"><path fill="#25D366" fill-rule="evenodd" d="M307.546 52.566C273.709 18.684 228.706.017 180.756 0 81.951 0 1.538 80.404 1.504 179.235c-.017 31.594 8.242 62.432 23.928 89.609L0 361.736l95.024-24.925c26.179 14.285 55.659 21.805 85.655 21.814h.077c98.788 0 179.21-80.413 179.244-179.244.017-47.898-18.608-92.926-52.454-126.807v-.008Zm-126.79 275.788h-.06c-26.73-.008-52.952-7.194-75.831-20.765l-5.44-3.231-56.391 14.791 15.05-54.981-3.542-5.638c-14.912-23.721-22.793-51.139-22.776-79.286.035-82.14 66.867-148.973 149.051-148.973 39.793.017 77.198 15.53 105.328 43.695 28.131 28.157 43.61 65.596 43.593 105.398-.035 82.149-66.867 148.982-148.982 148.982v.008Zm81.719-111.577c-4.478-2.243-26.497-13.073-30.606-14.568-4.108-1.496-7.09-2.243-10.073 2.243-2.982 4.487-11.568 14.577-14.181 17.559-2.613 2.991-5.226 3.361-9.704 1.117-4.477-2.243-18.908-6.97-36.02-22.226-13.313-11.878-22.304-26.54-24.916-31.027-2.613-4.486-.275-6.91 1.959-9.136 2.011-2.011 4.478-5.234 6.721-7.847 2.244-2.613 2.983-4.486 4.478-7.469 1.496-2.991.748-5.603-.369-7.847-1.118-2.243-10.073-24.289-13.812-33.253-3.636-8.732-7.331-7.546-10.073-7.692-2.613-.13-5.595-.155-8.586-.155-2.991 0-7.839 1.118-11.947 5.604-4.108 4.486-15.677 15.324-15.677 37.361s16.047 43.344 18.29 46.335c2.243 2.991 31.585 48.225 76.51 67.632 10.684 4.615 19.029 7.374 25.535 9.437 10.727 3.412 20.49 2.931 28.208 1.779 8.604-1.289 26.498-10.838 30.228-21.298 3.73-10.46 3.73-19.433 2.613-21.298-1.117-1.865-4.108-2.991-8.586-5.234l.008-.017Z" clip-rule="evenodd"/></symbol>

/* TikTok Icon */
<symbol id="TikTok" viewBox="0 0 352.28 398.67"><g id="tiktok_icon_dark__Layer_1-2"><path d="M137.17 156.98v-15.56c-5.34-.73-10.76-1.18-16.29-1.18C54.23 140.24 0 194.47 0 261.13c0 40.9 20.43 77.09 51.61 98.97-20.12-21.6-32.46-50.53-32.46-82.31 0-65.7 52.69-119.28 118.03-120.81Z"/><path d="M140.02 333c29.74 0 54-23.66 55.1-53.13l.11-263.2h48.08c-1-5.41-1.55-10.97-1.55-16.67h-65.67l-.11 263.2c-1.1 29.47-25.36 53.13-55.1 53.13-9.24 0-17.95-2.31-25.61-6.34C105.3 323.9 121.6 333 140.02 333ZM333.13 106V91.37c-18.34 0-35.43-5.45-49.76-14.8 12.76 14.65 30.09 25.22 49.76 29.43Z"/><path d="M283.38 76.57c-13.98-16.05-22.47-37-22.47-59.91h-17.59c4.63 25.02 19.48 46.49 40.06 59.91ZM120.88 205.92c-30.44 0-55.21 24.77-55.21 55.21 0 21.2 12.03 39.62 29.6 48.86-6.55-9.08-10.45-20.18-10.45-32.2 0-30.44 24.77-55.21 55.21-55.21 5.68 0 11.13.94 16.29 2.55v-67.05c-5.34-.73-10.76-1.18-16.29-1.18-.96 0-1.9.05-2.85.07v51.49c-5.16-1.61-10.61-2.55-16.29-2.55Z"/><path d="M333.13 106v51.04c-34.05 0-65.61-10.89-91.37-29.38v133.47c0 66.66-54.23 120.88-120.88 120.88-25.76 0-49.64-8.12-69.28-21.91 22.08 23.71 53.54 38.57 88.42 38.57 66.66 0 120.88-54.23 120.88-120.88V144.33c25.76 18.49 57.32 29.38 91.37 29.38v-65.68c-6.57 0-12.97-.71-19.14-2.03Z"/><path d="M241.76 261.13V127.66c25.76 18.49 57.32 29.38 91.37 29.38V106c-19.67-4.21-37-14.77-49.76-29.43-20.58-13.42-35.43-34.88-40.06-59.91h-48.08l-.11 263.2c-1.1 29.47-25.36 53.13-55.1 53.13-18.42 0-34.72-9.1-44.75-23.01-17.57-9.25-29.6-27.67-29.6-48.86 0-30.44 24.77-55.21 55.21-55.21 5.68 0 11.13.94 16.29 2.55v-51.49C71.83 158.5 19.14 212.08 19.14 277.78c0 31.78 12.34 60.71 32.46 82.31C71.23 373.87 95.12 382 120.88 382c66.65 0 120.88-54.23 120.88-120.88Z" style="fill:#fff"/></g></symbol>

/* Spotify Icon */
<symbol id="Spotify" viewBox="0 0 256 256" preserveAspectRatio="xMidYMid"><path d="M128 0C57.308 0 0 57.309 0 128c0 70.696 57.309 128 128 128 70.697 0 128-57.304 128-128C256 57.314 198.697.007 127.998.007l.001-.006Zm58.699 184.614c-2.293 3.76-7.215 4.952-10.975 2.644-30.053-18.357-67.885-22.515-112.44-12.335a7.981 7.981 0 0 1-9.552-6.007 7.968 7.968 0 0 1 6-9.553c48.76-11.14 90.583-6.344 124.323 14.276 3.76 2.308 4.952 7.215 2.644 10.975Zm15.667-34.853c-2.89 4.695-9.034 6.178-13.726 3.289-34.406-21.148-86.853-27.273-127.548-14.92-5.278 1.594-10.852-1.38-12.454-6.649-1.59-5.278 1.386-10.842 6.655-12.446 46.485-14.106 104.275-7.273 143.787 17.007 4.692 2.89 6.175 9.034 3.286 13.72v-.001Zm1.345-36.293C162.457 88.964 94.394 86.71 55.007 98.666c-6.325 1.918-13.014-1.653-14.93-7.978-1.917-6.328 1.65-13.012 7.98-14.935C93.27 62.027 168.434 64.68 215.929 92.876c5.702 3.376 7.566 10.724 4.188 16.405-3.362 5.69-10.73 7.565-16.4 4.187h-.006Z" fill="#1ED760"/></symbol>

/* Telegram Icon */
<symbol id="Telegram" viewBox="0 0 256 256" preserveAspectRatio="xMidYMid"><defs><linearGradient id="telegram__a" x1="50%" x2="50%" y1="0%" y2="100%"><stop offset="0%" stop-color="#2AABEE"/><stop offset="100%" stop-color="#229ED9"/></linearGradient></defs><path fill="url(#telegram__a)" d="M128 0C94.06 0 61.48 13.494 37.5 37.49A128.038 128.038 0 0 0 0 128c0 33.934 13.5 66.514 37.5 90.51C61.48 242.506 94.06 256 128 256s66.52-13.494 90.5-37.49c24-23.996 37.5-56.576 37.5-90.51 0-33.934-13.5-66.514-37.5-90.51C194.52 13.494 161.94 0 128 0Z"/><path fill="#FFF" d="M57.94 126.648c37.32-16.256 62.2-26.974 74.64-32.152 35.56-14.786 42.94-17.354 47.76-17.441 1.06-.017 3.42.245 4.96 1.49 1.28 1.05 1.64 2.47 1.82 3.467.16.996.38 3.266.2 5.038-1.92 20.24-10.26 69.356-14.5 92.026-1.78 9.592-5.32 12.808-8.74 13.122-7.44.684-13.08-4.912-20.28-9.63-11.26-7.386-17.62-11.982-28.56-19.188-12.64-8.328-4.44-12.906 2.76-20.386 1.88-1.958 34.64-31.748 35.26-34.45.08-.338.16-1.598-.6-2.262-.74-.666-1.84-.438-2.64-.258-1.14.256-19.12 12.152-54 35.686-5.1 3.508-9.72 5.218-13.88 5.128-4.56-.098-13.36-2.584-19.9-4.708-8-2.606-14.38-3.984-13.82-8.41.28-2.304 3.46-4.662 9.52-7.072Z"/></symbol>

/* Pinterest Icon */
<symbol id="Pinterest" viewBox="0 0 256 256"><path fill="#FFF" d="M0 128.002c0 52.414 31.518 97.442 76.619 117.239c-.36-8.938-.064-19.668 2.228-29.393c2.461-10.391 16.47-69.748 16.47-69.748s-4.089-8.173-4.089-20.252c0-18.969 10.994-33.136 24.686-33.136c11.643 0 17.268 8.745 17.268 19.217c0 11.704-7.465 29.211-11.304 45.426c-3.207 13.578 6.808 24.653 20.203 24.653c24.252 0 40.586-31.149 40.586-68.055c0-28.054-18.895-49.052-53.262-49.052c-38.828 0-63.017 28.956-63.017 61.3c0 11.152 3.288 19.016 8.438 25.106c2.368 2.797 2.697 3.922 1.84 7.134c-.614 2.355-2.024 8.025-2.608 10.272c-.852 3.242-3.479 4.401-6.409 3.204c-17.884-7.301-26.213-26.886-26.213-48.902c0-36.361 30.666-79.961 91.482-79.961c48.87 0 81.035 35.364 81.035 73.325c0 50.213-27.916 87.726-69.066 87.726c-13.819 0-26.818-7.47-31.271-15.955c0 0-7.431 29.492-9.005 35.187c-2.714 9.869-8.026 19.733-12.883 27.421a127.897 127.897 0 0 0 36.277 5.249c70.684 0 127.996-57.309 127.996-128.005C256.001 57.309 198.689 0 128.005 0C57.314 0 0 57.309 0 128.002"/></symbol>

/* Discord Icon */
<symbol id="Discord" viewBox="0 0 256 199" preserveAspectRatio="xMidYMid"><path d="M216.856 16.597A208.502 208.502 0 0 0 164.042 0c-2.275 4.113-4.933 9.645-6.766 14.046-19.692-2.961-39.203-2.961-58.533 0-1.832-4.4-4.55-9.933-6.846-14.046a207.809 207.809 0 0 0-52.855 16.638C5.618 67.147-3.443 116.4 1.087 164.956c22.169 16.555 43.653 26.612 64.775 33.193A161.094 161.094 0 0 0 79.735 175.3a136.413 136.413 0 0 1-21.846-10.632 108.636 108.636 0 0 0 5.356-4.237c42.122 19.702 87.89 19.702 129.51 0a131.66 131.66 0 0 0 5.355 4.237 136.07 136.07 0 0 1-21.886 10.653c4.006 8.02 8.638 15.67 13.873 22.848 21.142-6.58 42.646-16.637 64.815-33.213 5.316-56.288-9.08-105.09-38.056-148.36ZM85.474 135.095c-12.645 0-23.015-11.805-23.015-26.18s10.149-26.2 23.015-26.2c12.867 0 23.236 11.804 23.015 26.2.02 14.375-10.148 26.18-23.015 26.18Zm85.051 0c-12.645 0-23.014-11.805-23.014-26.18s10.148-26.2 23.014-26.2c12.867 0 23.236 11.804 23.015 26.2 0 14.375-10.148 26.18-23.015 26.18Z" fill="#5865F2"/></symbol>

/* Arrowhead Icon */
<symbol id="Arrowhead" xmlns="http://www.w3.org/2000/svg" width="24" height="24" viewBox="0 0 24 24" fill="currentColor" class="icon icon-tabler icons-tabler-filled icon-tabler-arrow-badge-right"><path stroke="none" d="M0 0h24v24H0z" fill="none"/><path d="M7 6l-.112 .006a1 1 0 0 0 -.669 1.619l3.501 4.375l-3.5 4.375a1 1 0 0 0 .78 1.625h6a1 1 0 0 0 .78 -.375l4 -5a1 1 0 0 0 0 -1.25l-4 -5a1 1 0 0 0 -.78 -.375h-6z" /></symbol>

/* Reddit Icon */
<symbol id="Reddit" xmlns:xlink="http://www.w3.org/1999/xlink" viewBox="0 0 216 216"><defs><radialGradient id="reddit__snoo-radial-gragient" cx="169.75" cy="92.19" r="50.98" fx="169.75" fy="92.19" gradientTransform="matrix(1 0 0 .87 0 11.64)" gradientUnits="userSpaceOnUse"><stop offset="0" stop-color="#feffff"/><stop offset=".4" stop-color="#feffff"/><stop offset=".51" stop-color="#f9fcfc"/><stop offset=".62" stop-color="#edf3f5"/><stop offset=".7" stop-color="#dee9ec"/><stop offset=".72" stop-color="#d8e4e8"/><stop offset=".76" stop-color="#ccd8df"/><stop offset=".8" stop-color="#c8d5dd"/><stop offset=".83" stop-color="#ccd6de"/><stop offset=".85" stop-color="#d8dbe2"/><stop offset=".88" stop-color="#ede3e9"/><stop offset=".9" stop-color="#ffebef"/></radialGradient><radialGradient xlink:href="#reddit__snoo-radial-gragient" id="reddit__snoo-radial-gragient-2" cx="47.31" r="50.98" fx="47.31"/><radialGradient xlink:href="#reddit__snoo-radial-gragient" id="reddit__snoo-radial-gragient-3" cx="109.61" cy="85.59" r="153.78" fx="109.61" fy="85.59" gradientTransform="matrix(1 0 0 .7 0 25.56)"/><radialGradient id="reddit__snoo-radial-gragient-4" cx="-6.01" cy="64.68" r="12.85" fx="-6.01" fy="64.68" gradientTransform="matrix(1.07 0 0 1.55 81.08 27.26)" gradientUnits="userSpaceOnUse"><stop offset="0" stop-color="#f60"/><stop offset=".5" stop-color="#ff4500"/><stop offset=".7" stop-color="#fc4301"/><stop offset=".82" stop-color="#f43f07"/><stop offset=".92" stop-color="#e53812"/><stop offset="1" stop-color="#d4301f"/></radialGradient><radialGradient xlink:href="#reddit__snoo-radial-gragient-4" id="reddit__snoo-radial-gragient-5" cx="-73.55" cy="64.68" r="12.85" fx="-73.55" fy="64.68" gradientTransform="matrix(-1.07 0 0 1.55 62.87 27.26)"/><radialGradient id="reddit__snoo-radial-gragient-6" cx="107.93" cy="166.96" r="45.3" fx="107.93" fy="166.96" gradientTransform="matrix(1 0 0 .66 0 57.4)" gradientUnits="userSpaceOnUse"><stop offset="0" stop-color="#172e35"/><stop offset=".29" stop-color="#0e1c21"/><stop offset=".73" stop-color="#030708"/><stop offset="1"/></radialGradient><radialGradient xlink:href="#reddit__snoo-radial-gragient" id="reddit__snoo-radial-gragient-7" cx="147.88" cy="32.94" r="39.77" fx="147.88" fy="32.94" gradientTransform="matrix(1 0 0 .98 0 .54)"/><radialGradient id="reddit__snoo-radial-gragient-8" cx="131.31" cy="73.08" r="32.6" fx="131.31" fy="73.08" gradientUnits="userSpaceOnUse"><stop offset=".48" stop-color="#7a9299"/><stop offset=".67" stop-color="#172e35"/><stop offset=".75"/><stop offset=".82" stop-color="#172e35"/></radialGradient></defs><path fill="#ff4500" d="M108 0C48.35 0 0 48.35 0 108c0 29.82 12.09 56.82 31.63 76.37l-20.57 20.57C6.98 209.02 9.87 216 15.64 216H108c59.65 0 108-48.35 108-108S167.65 0 108 0Z"/><circle cx="169.22" cy="106.98" r="25.22" fill="url(#reddit__snoo-radial-gragient)"/><circle cx="46.78" cy="106.98" r="25.22" fill="url(#reddit__snoo-radial-gragient-2)"/><ellipse cx="108.06" cy="128.64" fill="url(#reddit__snoo-radial-gragient-3)" rx="72" ry="54"/><path fill="url(#reddit__snoo-radial-gragient-4)" d="M86.78 123.48c-.42 9.08-6.49 12.38-13.56 12.38s-12.46-4.93-12.04-14.01c.42-9.08 6.49-15.02 13.56-15.02s12.46 7.58 12.04 16.66Z"/><path fill="url(#reddit__snoo-radial-gragient-5)" d="M129.35 123.48c.42 9.08 6.49 12.38 13.56 12.38s12.46-4.93 12.04-14.01c-.42-9.08-6.49-15.02-13.56-15.02s-12.46 7.58-12.04 16.66Z"/><ellipse cx="79.63" cy="116.37" rx="2.8" ry="3.05"/><ellipse cx="146.21" cy="116.37" rx="2.8" ry="3.05"/><path fill="url(#reddit__snoo-radial-gragient-6)" d="M108.06 142.92c-8.76 0-17.16.43-24.92 1.22-1.33.13-2.17 1.51-1.65 2.74 4.35 10.39 14.61 17.69 26.57 17.69s22.23-7.3 26.57-17.69c.52-1.23-.33-2.61-1.65-2.74-7.77-.79-16.16-1.22-24.92-1.22Z"/><circle cx="147.49" cy="49.43" r="17.87" fill="url(#reddit__snoo-radial-gragient-7)"/><path fill="url(#reddit__snoo-radial-gragient-8)" d="M107.8 76.92c-2.14 0-3.87-.89-3.87-2.27 0-16.01 13.03-29.04 29.04-29.04 2.14 0 3.87 1.73 3.87 3.87s-1.73 3.87-3.87 3.87c-11.74 0-21.29 9.55-21.29 21.29 0 1.38-1.73 2.27-3.87 2.27Z"/><path fill="#842123" d="M62.82 122.65c.39-8.56 6.08-14.16 12.69-14.16 6.26 0 11.1 6.39 11.28 14.33.17-8.88-5.13-15.99-12.05-15.99s-13.14 6.05-13.56 15.2c-.42 9.15 4.97 13.83 12.04 13.83h.52c-6.44-.16-11.3-4.79-10.91-13.2Zm90.48 0c-.39-8.56-6.08-14.16-12.69-14.16-6.26 0-11.1 6.39-11.28 14.33-.17-8.88 5.13-15.99 12.05-15.99 7.07 0 13.14 6.05 13.56 15.2.42 9.15-4.97 13.83-12.04 13.83h-.52c6.44-.16 11.3-4.79 10.91-13.2Z"/></symbol>

/* X Icon */
<symbol id="X" fill="none" viewBox="0 0 1200 1227"><path fill="#000" d="M714.163 519.284 1160.89 0h-105.86L667.137 450.887 357.328 0H0l468.492 681.821L0 1226.37h105.866l409.625-476.152 327.181 476.152H1200L714.137 519.284h.026ZM569.165 687.828l-47.468-67.894-377.686-540.24h162.604l304.797 435.991 47.468 67.894 396.2 566.721H892.476L569.165 687.854v-.026Z"/></symbol>

</svg>
